<?xml version="1.0" encoding="UTF-8" standalone="no"?>
<!-- Created with Inkscape (http://www.inkscape.org/) -->

<svg
   width="150mm"
   height="75mm"
   viewBox="0 0 150 75"
   version="1.1"
   id="svg416"
   inkscape:version="1.2.2 (732a01da63, 2022-12-09)"
   sodipodi:docname="bool.svg"
   xmlns:inkscape="http://www.inkscape.org/namespaces/inkscape"
   xmlns:sodipodi="http://sodipodi.sourceforge.net/DTD/sodipodi-0.dtd"
   xmlns="http://www.w3.org/2000/svg"
   xmlns:svg="http://www.w3.org/2000/svg">
  <sodipodi:namedview
     id="namedview418"
     pagecolor="#ffffff"
     bordercolor="#000000"
     borderopacity="0.25"
     inkscape:showpageshadow="2"
     inkscape:pageopacity="0.0"
     inkscape:pagecheckerboard="0"
     inkscape:deskcolor="#d1d1d1"
     inkscape:document-units="mm"
     showgrid="false"
     inkscape:zoom="1.0610557"
     inkscape:cx="393.94727"
     inkscape:cy="561.70472"
     inkscape:window-width="3840"
     inkscape:window-height="1537"
     inkscape:window-x="-8"
     inkscape:window-y="-8"
     inkscape:window-maximized="1"
     inkscape:current-layer="layer1" />
  <defs
     id="defs413" />
  <g
     inkscape:label="Ebene 1"
     inkscape:groupmode="layer"
     id="layer1">
    <path
       d="m 10.671099,41.510551 h -0.15875 v 20.53167 c 0,1.48166 1.217083,2.69875 2.69875,2.69875 h 21.140204 c -0.1852,-12.83229 -10.742079,-23.23042 -23.680204,-23.23042 z m 0,-16.93333 h -0.15875 v 8.73125 c 17.436042,0.0794 31.617704,14.10229 31.802914,31.4325 h 9.04875 c -0.15875,-22.17209 -18.36208,-40.16375 -40.692914,-40.16375 z m 53.525204,37.49146 v -18.5473 C 58.057973,28.493051 45.701933,16.613261 30.303182,11.083472 H 13.211099 c -1.481667,0 -2.69875,1.21708 -2.69875,2.69875 v 2.61937 c 26.828754,0.0794 48.656874,21.695839 48.815624,48.365839 h 2.16958 c 1.48167,-0.0265 2.69875,-1.21709 2.69875,-2.69875 z m -7.06437,-43.4975 c 2.48708,2.48708 5.02708,5.63562 7.06437,8.41375 V 13.755762 a 2.6643541,2.6643541 0 0 0 -2.67229,-2.67229 h -13.62604 c 3.14854,2.19604 6.42938,4.70958 9.23396,7.487709 z"
       fill="#660066"
       id="path134"
       style="fill:#000000;stroke-width:0.264583" />
    <g
       aria-label="true"
       transform="matrix(1.377126,0,0,1.6476171,-7.0279948,-113.92571)"
       id="text1212"
       style="font-weight:bold;font-size:22.5778px;font-family:Verdana;-inkscape-font-specification:'Verdana Bold';text-align:center;text-anchor:middle;white-space:pre;inline-size:107.322;display:inline;stroke:#00151e;stroke-width:0.264583">
      <path
         d="m 64.470231,108.33669 q -0.639411,0.16536 -1.355991,0.25356 -0.716581,0.0992 -1.752867,0.0992 -2.315106,0 -3.450611,-0.93706 -1.12448,-0.93707 -1.12448,-3.20808 v -5.787765 h -1.631599 v -2.689933 h 1.631599 v -3.538805 h 3.968754 v 3.538805 h 3.715195 v 2.689933 h -3.715195 v 4.387675 q 0,0.65044 0.01102,1.13551 0.01102,0.48507 0.176389,0.87092 0.154341,0.38585 0.540192,0.61736 0.396875,0.22049 1.146529,0.22049 0.308681,0 0.804775,-0.13229 0.507118,-0.1323 0.705556,-0.24254 h 0.33073 z"
         id="path6530" />
      <path
         d="m 75.814252,99.847963 h -0.352778 q -0.253559,-0.08819 -0.815799,-0.132292 -0.56224,-0.0441 -0.937067,-0.0441 -0.848872,0 -1.499307,0.110243 -0.650435,0.110243 -1.400088,0.374823 v 8.29029 H 66.840459 V 96.066622 h 3.968754 v 1.819012 q 1.311893,-1.12448 2.282033,-1.488282 0.97014,-0.374827 1.78594,-0.374827 0.209462,0 0.474045,0.01102 0.264584,0.01103 0.463021,0.03307 z"
         id="path6532" />
      <path
         d="M 90.399424,108.44693 H 86.43067 v -1.36702 q -1.102432,0.83785 -2.01745,1.27883 -0.915019,0.42994 -2.182815,0.42994 -2.050523,0 -3.163979,-1.1796 -1.102432,-1.1796 -1.102432,-3.48368 v -8.058778 h 3.990803 v 6.140548 q 0,0.93706 0.05512,1.56545 0.06615,0.61736 0.286633,1.02526 0.209462,0.4079 0.628386,0.59531 0.429948,0.18742 1.190626,0.18742 0.507119,0 1.12448,-0.18742 0.617362,-0.18741 1.190627,-0.55121 v -8.775358 h 3.968754 z"
         id="path6534" />
      <path
         d="m 106.34058,102.98989 h -9.084033 q 0.08819,1.45521 1.102432,2.22692 1.025261,0.7717 3.009641,0.7717 1.25677,0 2.43637,-0.452 1.1796,-0.452 1.86311,-0.97014 h 0.44097 v 3.18603 q -1.34496,0.54019 -2.53559,0.78272 -1.19063,0.24254 -2.63481,0.24254 -3.72622,0 -5.710597,-1.6757 -1.984377,-1.67569 -1.984377,-4.77353 0,-3.064756 1.874133,-4.850695 1.885159,-1.796964 5.159381,-1.796964 3.02066,0 4.54202,1.53238 1.52135,1.521356 1.52135,4.387679 z m -3.9467,-2.32613 q -0.0331,-1.245746 -0.61736,-1.874132 -0.58429,-0.628386 -1.819016,-0.628386 -1.146528,0 -1.885158,0.595313 -0.738629,0.595314 -0.826823,1.907205 z"
         id="path6536" />
    </g>
    <rect
       style="fill:none;stroke:#00151e;stroke-width:3.0395;stroke-dasharray:none"
       id="rect1266"
       width="146.45656"
       height="71.684135"
       x="2.0101821"
       y="1.7137135" />
  </g>
</svg>
